<?xml version="1.0" encoding="UTF-8"?>
<!DOCTYPE svg PUBLIC "-//W3C//DTD SVG 1.1//EN" "http://www.w3.org/Graphics/SVG/1.1/DTD/svg11.dtd">
<svg xmlns="http://www.w3.org/2000/svg" version="1.1" width="38px" height="31px" style="shape-rendering:geometricPrecision; text-rendering:geometricPrecision; image-rendering:optimizeQuality; fill-rule:evenodd; clip-rule:evenodd" xmlns:xlink="http://www.w3.org/1999/xlink">
<g><path style="opacity:0.875" fill="#6c1dd5" d="M 13.5,-0.5 C 16.8333,-0.5 20.1667,-0.5 23.5,-0.5C 27.2603,1.42404 30.2603,4.25738 32.5,8C 34.1341,8.49351 35.8008,8.66018 37.5,8.5C 37.5,9.5 37.5,10.5 37.5,11.5C 36.2921,12.2341 34.9587,12.5674 33.5,12.5C 32.4666,27.3539 24.7999,32.5205 10.5,28C 8.12555,25.961 6.12555,23.6277 4.5,21C 2.86586,20.5065 1.19919,20.3398 -0.5,20.5C -0.5,19.5 -0.5,18.5 -0.5,17.5C 0.707917,16.7659 2.04125,16.4326 3.5,16.5C 3.01327,8.45954 6.34661,2.79287 13.5,-0.5 Z M 16.5,2.5 C 21.0136,2.44317 24.6803,4.10983 27.5,7.5C 21.8722,8.49543 16.2055,8.82876 10.5,8.5C 11.4379,11.0889 11.7712,13.5889 11.5,16C 10.2068,16.49 8.87344,16.6567 7.5,16.5C 7.00155,9.4802 10.0016,4.81354 16.5,2.5 Z M 25.5,13.5 C 26.5676,12.5655 27.901,12.2322 29.5,12.5C 30.1506,20.5234 26.4839,25.1901 18.5,26.5C 14.7262,26.1156 11.7262,24.4489 9.5,21.5C 15.1278,20.5046 20.7945,20.1712 26.5,20.5C 25.6388,17.9684 25.3055,15.635 25.5,13.5 Z"/></g>
</svg>
